<svg width="1496" height="772" viewBox="0 0 1496 772" fill="none" xmlns="http://www.w3.org/2000/svg">
<rect width="1496" height="772" fill="white"/>
<path fill-rule="evenodd" clip-rule="evenodd" d="M391.175 199.22C393.684 201.74 396.31 204.158 399.044 206.467L576.983 38.0144C574.481 35.4872 571.862 33.0621 569.135 30.7467L391.175 199.22ZM424.844 223.342C421.689 221.784 418.613 220.105 415.623 218.312L589.856 53.3685C591.811 56.142 593.644 58.9969 595.35 61.9265L424.844 223.342ZM445.409 231.414C449.448 232.618 453.575 233.638 457.778 234.464L607.655 92.5775C606.72 88.6591 605.577 84.8138 604.239 81.0523L445.409 231.414ZM499.595 236.101C494.548 236.682 489.409 236.985 484.197 236.994L610.688 117.246C610.693 117.662 610.695 118.078 610.695 118.495C610.695 122.943 610.433 127.335 609.922 131.656L499.595 236.101ZM541.216 224.24C565.713 212.621 585.629 193.779 597.759 170.711L541.216 224.24ZM552.598 18.8618C549.402 16.9331 546.108 15.1351 542.723 13.4759L372.377 174.74C374.194 177.883 376.157 180.941 378.26 183.905L552.598 18.8618ZM509.72 2.44447C513.928 3.25684 518.059 4.26423 522.103 5.45608L363.543 155.562C362.218 151.796 361.089 147.946 360.168 144.024L509.72 2.44447ZM483.214 -0.00341797C477.967 0.0247546 472.795 0.351106 467.717 0.958434L358.06 104.769C357.505 109.272 357.219 113.852 357.219 118.495C357.219 118.754 357.22 119.013 357.222 119.272L483.214 -0.00341797ZM370.692 65.2701C382.687 42.9971 401.977 24.7474 425.627 13.2634L370.692 65.2701Z" fill="#DB545A"/>
<circle cx="1332" cy="148" r="76" stroke="#40B3A2" stroke-width="40"/>
<rect x="771" y="197" width="615" height="549" stroke="#E27579" stroke-width="10"/>
<circle cx="1049.5" cy="645.5" r="118.5" fill="#40B3A2"/>
<rect x="632" width="625" height="559" fill="#DB545A"/>
<rect x="61" y="34" width="615" height="549" stroke="#40B3A2" stroke-width="10"/>
<rect x="218" y="198" width="625" height="559" fill="#478AC9"/>
<circle cx="238" cy="594" r="76" stroke="#E68387" stroke-width="40"/>
</svg>
